# xmcd CD database file
#
# Track frame offsets:
#	150
#	13991
#	26567
#	41133
#	54918
#	68814
#	84440
#	97202
#	109815
#	123401
#	138139
#	152938
#	164462
#	177381
#	188996
#	201369
#
# Disc length: 2860 seconds
#
# Revision: 0
# Processed by: cddbd v1.5.2PL0 Copyright (c) Steve Scherf et al.
# Submitted via: CDex 1.50
#
DISCID=e40b2a10
DTITLE=Chick Bullock - Chick Bullock and His Levee Loungers
DYEAR=2001
DGENRE=Jazz
TTITLE0=Two Tickets To Georgia
TTITLE1=The Grass Is Getting Greener All The Time
TTITLE2=Frankie And Johnny
TTITLE3=I Can't Dance, I Got Ants In My Pants
TTITLE4=Sleepy Time Gal
TTITLE5=Tie Me To Your Apron Strings
TTITLE6=The Loveliness Of You
TTITLE7=Afraid To Dream
TTITLE8=Smiles
TTITLE9=It Had To Be You
TTITLE10=My Melancholy Baby
TTITLE11=(Back Home Again In) Indiana
TTITLE12=Dolores
TTITLE13=Amapola
TTITLE14=Oh! How I Hate To Get Up In The Morning
TTITLE15=There'll Be Some Changes Made
EXTD=YEAR: 2001
EXTT0=
EXTT1=
EXTT2=
EXTT3=
EXTT4=
EXTT5=
EXTT6=
EXTT7=
EXTT8=
EXTT9=
EXTT10=
EXTT11=
EXTT12=
EXTT13=
EXTT14=
EXTT15=
PLAYORDER=
